<?xml version="1.0" encoding="UTF-8" standalone="no"?>
<!-- Created with Inkscape (http://www.inkscape.org/) -->

<svg
   xmlns:dc="http://purl.org/dc/elements/1.1/"
   xmlns:cc="http://creativecommons.org/ns#"
   xmlns:rdf="http://www.w3.org/1999/02/22-rdf-syntax-ns#"
   xmlns:svg="http://www.w3.org/2000/svg"
   xmlns="http://www.w3.org/2000/svg"
   version="1.1"
   width="376.08749"
   height="189.36118"
   id="svg3888">
  <defs
     id="defs3890" />
  <g
     transform="translate(-186.24196,-460.53874)"
     id="layer1">
    <path
       d="m 187.24196,648.89991 374.0875,0 0,-187.36117 -374.0875,0 0,187.36117 z"
       id="path754"
       style="fill:#e41e27;fill-opacity:1;fill-rule:nonzero;stroke:none" />
    <path
       d="m 321.3125,17.375 c -6.3017,0 -9.1875,2.29926 -9.1875,6.59375 0,4.72394 2.8858,6.46875 9.1875,6.46875 6.47908,0 9.21875,-2.17426 9.21875,-6.46875 0,-4.29449 -2.73967,-6.59375 -9.21875,-6.59375 z m 23.625,0 c -6.31103,0 -9.21875,2.29926 -9.21875,6.59375 0,4.8173 2.90772,6.5625 9.21875,6.5625 6.39506,0 9.09375,-2.18399 9.09375,-6.5625 0,-4.29449 -2.69869,-6.59375 -9.09375,-6.59375 z m -207.125,0.71875 8.21875,12.78125 14.71875,0 8.5,-12.78125 -12.53125,0 -3.0625,6.5625 -0.53125,0 -3.0625,-6.5625 -12.25,0 z M 20.875,22.375 l 21.65625,65.6875 20.375,0 21.75,-65.6875 -19.03125,0 -10.65625,40.375 -1.59375,6.84375 -0.25,0 L 51.4375,62.75 41.03125,22.375 20.875,22.375 z M 287.65625,33.5 c -5.25608,0 -10.24777,1.66632 -14.1875,4.8125 l -2.375,-4.1875 -12.0625,0.6875 0,53.25 16.8125,0 0,-37.21875 c 1.4844,-1.93252 4.19925,-3.0625 7,-3.0625 4.2945,0 6.46875,1.91118 6.46875,6.8125 l 0,33.46875 16.90625,0 0,-33.46875 C 306.21875,41.01943 298.95263,33.5 287.65625,33.5 z M 104.125,33.59375 c -16.81387,0 -24.53125,10.23723 -24.53125,27.3125 0,18.13022 8.75195,28.125 27.84375,28.125 7.00189,0 13.56871,-1.32681 18.03125,-3.25 L 123.625,72.8125 C 119.06911,74.30623 114.34855,75 109.53125,75 101.64246,75 97.79394,72.57283 97.09375,66.09375 l 29.34375,0 c 0.2614,-2.19392 0.4375,-5.07592 0.4375,-7.53125 0,-16.89789 -8.47549,-24.96875 -22.75,-24.96875 z m 89.03125,0 c -16.81387,0 -24.53125,10.23723 -24.53125,27.3125 0,18.13022 8.78319,28.125 27.875,28.125 7.01122,0 13.55937,-1.32681 18.03125,-3.25 L 212.6875,72.8125 C 208.13161,74.30623 203.41104,75 198.59375,75 c -7.87946,0 -11.73731,-2.42717 -12.4375,-8.90625 l 29.34375,0 c 0.2614,-2.19392 0.4375,-5.07592 0.4375,-7.53125 0,-16.89789 -8.50674,-24.96875 -22.78125,-24.96875 z m 56.09375,0 c -5.51748,0 -10.41711,2.62736 -13.75,8.40625 l -0.25,0 -1.5,-7.71875 -13.40625,0.625 0,53.15625 16.90625,0 0,-26.71875 c 0,-7.61806 4.39592,-11.8125 10.875,-11.8125 2.27795,0 4.46361,0.35219 6.21875,0.875 l 0.9375,-15.9375 c -1.40038,-0.53215 -3.4919,-0.875 -6.03125,-0.875 z m -94.5625,0.09375 c -17.85948,0 -25.46875,10.33008 -25.46875,27.9375 0,18.21424 8.74992,27.5 25.125,27.5 5.86291,0 10.49101,-1.0667 13.5625,-2.8125 l -1.125,-12.625 c -2.53935,0.96159 -5.54171,1.59375 -8.78125,1.59375 -7.09524,0 -11.28125,-4.03099 -11.28125,-13.65625 0,-9.98936 2.63782,-13.5 11.65625,-13.5 2.63271,0 5.58564,0.61231 8.125,1.3125 l 0.875,-13.65625 c -3.23954,-1.223 -8.39301,-2.09375 -12.6875,-2.09375 z m 175.40625,0.5 -16.90625,0.71875 0,51.59375 c 0,2.97814 -1.76342,4.1875 -4.21875,4.1875 -0.96159,0 -2.00716,-0.1761 -2.96875,-0.4375 l -0.78125,11.3125 c 2.27794,0.79354 5.07464,1.21875 7.96875,1.21875 9.01843,0 16.90625,-3.67914 16.90625,-15.84375 l 0,-52.75 z m 23.40625,0 -17.25,0.8125 0,53.0625 17.25,0 0,-53.875 z M 103.28125,47 c 0.29258,-0.01635 0.58883,0 0.90625,0 4.64925,0 7.10386,2.36635 7.28125,8.5 L 96.75,55.5 c 0.490134,-6.074138 2.142559,-8.254729 6.53125,-8.5 z m 89.0625,0 c 0.29258,-0.01635 0.58883,0 0.90625,0 4.63992,0 7.10387,2.36635 7.28125,8.5 l -14.71875,0 c 0.49013,-6.074138 2.14256,-8.254729 6.53125,-8.5 z m 75.4375,49.3125 c -6.3017,0 -9.1875,2.26801 -9.1875,6.5625 0,4.8173 2.8858,6.59375 9.1875,6.59375 6.39506,0 9.125,-2.21523 9.125,-6.59375 0,-4.29449 -2.72994,-6.5625 -9.125,-6.5625 z M 252.5,98.5 l -17.0625,0.8125 0,67.6875 17.0625,0 0,-68.5 z m 91.65625,2.375 -13.3125,1.125 -2.71875,11.40625 -5.9375,0 0,12.15625 5.0625,0 0,25.0625 c 0,10.50283 5.51483,17.25 17.25,17.25 4.21046,0 8.25498,-0.69465 10.1875,-1.65625 l -0.875,-11.75 c -0.9616,0.34543 -2.80865,0.625 -4.125,0.625 -3.85571,0 -5.53125,-1.48933 -5.53125,-4.90625 l 0,-24.625 9.4375,0 0,-12.15625 -9.4375,0 0,-12.53125 z m -41.3125,11.65625 c -14.53592,0 -21.25,7.44775 -21.25,17.34375 0,19.09181 23.375,14.50952 23.375,21.25 0,2.19393 -1.75789,3.6875 -5.875,3.6875 -4.29449,0 -10.70344,-1.04428 -15.25,-3.40625 l -1.65625,13.3125 c 4.73327,2.27795 10.4369,3.3125 17,3.3125 15.23611,0 21.375,-7.42405 21.375,-18.375 0,-18.3076 -22.875,-14.10494 -22.875,-20.5 0,-1.92318 1.58269,-3.0625 4.90625,-3.0625 3.85571,0 10.15313,0.77611 14.625,2.53125 L 318.4375,115.5 c -4.5559,-1.83916 -9.98291,-2.96875 -15.59375,-2.96875 z m -26.46875,0.59375 -17.25,0.78125 0,53.09375 17.25,0 0,-53.875 z"
       transform="translate(186.24196,460.53874)"
       id="path758"
       style="fill:#ffffff;fill-opacity:1;fill-rule:nonzero;stroke:none" />
  </g>
</svg>
