<?xml version="1.0" encoding="UTF-8"?>
<svg id="Layer_2" data-name="Layer 2" xmlns="http://www.w3.org/2000/svg" viewBox="0 0 720.91 119.11">
  <defs>
    <style>
      .cls-1 {
        fill: #e12c2c;
      }
    </style>
  </defs>
  <g id="Layer_1-2" data-name="Layer 1">
    <g>
      <path d="M49.3,119.11c-6.73,0-13.18-.49-19.36-1.46-6.18-.98-11.8-2.36-16.84-4.15-5.04-1.79-9.41-3.77-13.1-5.94l14.81-28.31c4.23,2.39,8.49,4.37,12.77,5.94,4.28,1.57,8.57,2.74,12.85,3.5,4.28.76,8.54,1.14,12.77,1.14,3.36,0,6.16-.27,8.38-.81,2.22-.54,3.91-1.33,5.04-2.36,1.14-1.03,1.71-2.2,1.71-3.5,0-1.73-.98-3.15-2.93-4.23-1.95-1.08-4.53-2.06-7.73-2.93-3.2-.87-6.73-1.76-10.58-2.68-3.85-.92-7.73-2.12-11.63-3.58-3.91-1.46-7.46-3.34-10.66-5.61-3.2-2.28-5.78-5.15-7.73-8.62-1.95-3.47-2.93-7.7-2.93-12.69,0-8.68,2.3-16.22,6.92-22.62,4.61-6.4,11.23-11.36,19.85-14.89C49.55,1.77,59.82,0,71.76,0,80.22,0,88.11.84,95.43,2.52c7.32,1.68,13.64,4.1,18.96,7.24l-13.83,27.99c-4.56-2.82-9.52-4.93-14.89-6.35-5.37-1.41-10.82-2.12-16.35-2.12-3.69,0-6.78.35-9.28,1.06-2.5.71-4.37,1.65-5.61,2.85-1.25,1.2-1.87,2.44-1.87,3.74,0,1.74.98,3.17,2.93,4.31s4.56,2.11,7.81,2.93c3.25.81,6.81,1.68,10.66,2.6,3.85.92,7.7,2.06,11.55,3.42,3.85,1.36,7.4,3.15,10.66,5.37,3.25,2.22,5.86,5.04,7.81,8.46,1.95,3.42,2.93,7.62,2.93,12.61,0,8.46-2.33,15.86-7,22.21-4.66,6.35-11.31,11.31-19.93,14.89-8.62,3.58-18.85,5.37-30.67,5.37Z"/>
      <path d="M150.54,87.54h57.11l-5.86,28.96h-94.7L129.88,2.6h92.58l-5.86,28.96h-54.83l-11.23,55.97ZM156.56,44.91h50.77l-5.53,27.66h-50.77l5.53-27.66Z"/>
      <path d="M342.21,50.93c0,5.27-.48,10.3-1.45,15.08-.56-.36-1.17-.73-1.85-1.11l-2.25-1.26c-.66-.37-1.24-.57-1.59-.69l-.04-.02c-8.03-3.57-16.63-4.32-22.45-4.32-.64,0-1.28.01-1.91.03h-2.3c-1.69,0-3.46,0-5.21.05.21-1.79.31-3.62.31-5.48,0-4.45-.89-8.32-2.68-11.63-1.79-3.31-4.34-5.88-7.65-7.73-3.31-1.84-7.3-2.77-11.96-2.77s-8.84.92-12.53,2.77c-3.69,1.85-6.83,4.39-9.44,7.65-2.6,3.25-4.56,6.97-5.86,11.15-1.3,4.18-1.95,8.6-1.95,13.26,0,3.02.44,5.81,1.3,8.35.38,1.11.84,2.18,1.39,3.2,1.38,2.58,3.2,4.72,5.47,6.41.68.51,1.41.98,2.18,1.4,1.08.6,2.24,1.11,3.46,1.51,2.29,1.56,4.29,3.47,5.98,5.73l.06.08.06.07c1.57,1.96,2.98,4.17,4.58,7.17l4.4,8.26c1.63,3.06,3.43,5.84,5.48,8.5.28.37.57.72.87,1.08-5.15.97-10.56,1.45-16.19,1.45-11.83,0-22.04-2.17-30.67-6.51-8.62-4.34-15.29-10.33-20.01-17.98-4.72-7.65-7.08-16.46-7.08-26.44s1.76-19.28,5.29-27.58c3.52-8.3,8.48-15.48,14.89-21.56,6.4-6.07,13.99-10.77,22.78-14.07,8.79-3.31,18.39-4.97,28.8-4.97,11.83,0,22.05,2.17,30.67,6.51,8.62,4.34,15.3,10.33,20.01,17.98,4.72,7.65,7.08,16.46,7.08,26.44Z"/>
      <g>
        <path d="M365.95,5.55l18.06-.32-13.44,95.42,65.29-1.14-2.32,16.54-83.34,1.46,15.76-111.96Z"/>
        <path d="M461.7,5.04l18.06-.32-15.76,111.96-18.06.32,15.76-111.96Z"/>
        <path d="M548.9,2.61c28.3-.49,45.13,17.97,47.3,42.77l.03,1.91-19.62.34-.02-1.22c-2.17-15.07-13.32-26.52-30.16-26.22-22.75.4-38.19,20.99-40.96,41.19-2.78,20.02,6.61,40.18,29.53,39.78,16.67-.29,31.4-11.84,37.56-27.23l.67-1.23,19.62-.34-.66,1.92c-9.29,25-31.18,44.31-59.66,44.81-34.73.61-50.5-27.25-46.33-57.2,4.16-30.12,27.98-58.67,62.71-59.28Z"/>
        <path d="M616.9,5.73l18.06-.32-8.35,58.85,69.3-59.92,25-.44-54.58,47.15,40.04,64.78-21.7.38-32.54-52.93-28.75,24.82-4.18,29.25-18.06.32,15.76-111.96Z"/>
      </g>
      <path class="cls-1" d="M307.15,63.36c6.53-.19,13.7.72,19.77,3.44.3.13.65.21.91.36l2.04,1.15c3.09,1.74,4.23,3.01,6.76,5.22,2.12,2.66,4.01,5.23,5.44,8.27,1.49,3.17,2.54,6.71,2.69,10.25.62,15.11-12.7,25.85-26.96,26.95-7.11.55-14.02-1.18-20.12-4.77-3.38-1.99-6.27-4.43-8.67-7.54-1.7-2.2-3.14-4.44-4.45-6.9l-4-7.49c-1.4-2.62-2.87-5.05-4.73-7.38-3.86-5.15-9.13-8.7-15.52-10.57,3.95-3.37,13.58-6.86,15.49-7.33,1.61-.36,2.59-.38,3.55-.45.75-.05,2.61-.06,3.73,0,1.31.07,2.62.13,3.88.5,2.85.83,7.35,3.68,9.51,5.77,2.6,2.51,4.87,5.24,6.74,8.35,1.26,2.09,2.64,3.96,4.53,5.51,2,1.64,4.34,2.87,6.94,2.94.89.02,1.84-.22,2.27-.96.79-1.35-1.06-4.77-1.82-6.11-1.96-3.44-4.28-6.54-6.97-9.43-3.64-3.88-10.45-7.56-15.8-9.13,4.14-.71,10.86-.65,14.79-.64Z"/>
    </g>
  </g>
</svg>