<svg xmlns="http://www.w3.org/2000/svg" viewBox="0 0 512 512">
  <rect width="512" height="512" rx="96" fill="#000000"/>
  <g transform="translate(56, 124.0) scale(1.0729)">
    <path fill="#e12c2c" d="M370.92,150.92c-10.34,53.73-62.18,90.52-117.21,94.76-.55.04-1.1.08-1.65.11-30.82,2.03-60.66-5.57-87.17-21.17-14.92-8.77-27.66-19.52-38.28-33.28-7.48-9.69-13.84-19.6-19.63-30.44l-17.63-33.06c-6.17-11.55-12.65-22.3-20.86-32.56C51.46,72.57,28.23,56.91,0,48.64c9.83-8.37,27.66-16.93,42.83-23.16,11.72-4.81,21.85-8.24,25.52-9.16,7.12-1.59,11.42-1.7,15.68-1.99,3.33-.25,11.53-.28,16.45,0,5.76.32,11.55.59,17.13,2.2,12.59,3.65,32.45,16.23,41.97,25.45,11.45,11.08,21.49,23.15,29.76,36.84,5.57,9.24,11.66,17.49,19.99,24.33,8.84,7.23,19.14,12.65,30.63,12.95,3.9.11,8.14-1,10.03-4.24,3.48-5.96-4.66-21.07-8.03-26.98-2.8-4.92-5.76-9.69-8.92-14.31-6.53-9.64-13.8-18.69-21.83-27.32-16.09-17.13-46.12-33.38-69.75-40.31C159.7-.17,189.33.08,206.73.1c28.82-.83,60.45,3.18,87.26,15.17,1.31.59,2.86.95,4.01,1.59l9.03,5.07c13.63,7.67,18.65,13.31,29.82,23.04,9.35,11.72,17.72,23.1,23.99,36.5,6.57,13.97,11.23,29.63,11.89,45.25.34,8.39-.3,16.47-1.8,24.2Z"/>
  </g>
</svg>
